<?xml version="1.0" encoding="UTF-8" standalone="no"?>
<!DOCTYPE svg PUBLIC "-//W3C//DTD SVG 1.1//EN"
 "http://www.w3.org/Graphics/SVG/1.1/DTD/svg11.dtd">
<!-- Generated by graphviz version 2.47.0 (20210316.0004)
 -->
<!-- Title: dbml Pages: 1 -->
<svg width="715pt" height="608pt"
 viewBox="0.00 0.00 715.11 607.63" xmlns="http://www.w3.org/2000/svg" xmlns:xlink="http://www.w3.org/1999/xlink">
<g id="graph0" class="graph" transform="scale(1 1) rotate(0) translate(4 603.63)">
<title>dbml</title>
<!-- web_push_subscriptions -->
<g id="web_push_subscriptions" class="node">
<title>web_push_subscriptions</title>
<ellipse fill="none" stroke="black" stroke-width="0" cx="353.55" cy="-299.81" rx="353.61" ry="299.63"/>
<polygon fill="#1d71b8" stroke="transparent" points="105.55,-449.81 105.55,-509.81 601.55,-509.81 601.55,-449.81 105.55,-449.81"/>
<polygon fill="none" stroke="#29235c" points="105.55,-449.81 105.55,-509.81 601.55,-509.81 601.55,-449.81 105.55,-449.81"/>
<text text-anchor="start" x="116.15" y="-471.01" font-family="Helvetica,sans-Serif" font-weight="bold" font-size="32.00" fill="#ffffff"> &#160;&#160;&#160;&#160;&#160;&#160;web_push_subscriptions &#160;&#160;&#160;&#160;&#160;&#160;</text>
<polygon fill="#e7e2dd" stroke="transparent" points="105.55,-389.81 105.55,-449.81 601.55,-449.81 601.55,-389.81 105.55,-389.81"/>
<polygon fill="none" stroke="#29235c" points="105.55,-389.81 105.55,-449.81 601.55,-449.81 601.55,-389.81 105.55,-389.81"/>
<text text-anchor="start" x="116.55" y="-411.01" font-family="Helvetica,sans-Serif" font-weight="bold" font-size="32.00" fill="#29235c">id</text>
<text text-anchor="start" x="141.44" y="-411.01" font-family="Helvetica,sans-Serif" font-size="32.00" fill="#29235c"> &#160;&#160;&#160;</text>
<text text-anchor="start" x="475.03" y="-411.01" font-family="Helvetica,sans-Serif" font-style="italic" font-size="32.00" fill="#29235c">serial</text>
<text text-anchor="start" x="551.46" y="-411.01" font-family="Helvetica,sans-Serif" font-size="32.00" fill="#29235c"> </text>
<text text-anchor="start" x="560.35" y="-411.01" font-family="Helvetica,sans-Serif" font-weight="bold" font-size="32.00" fill="#29235c">(!)</text>
<polygon fill="#e7e2dd" stroke="transparent" points="105.55,-329.81 105.55,-389.81 601.55,-389.81 601.55,-329.81 105.55,-329.81"/>
<polygon fill="none" stroke="#29235c" points="105.55,-329.81 105.55,-389.81 601.55,-389.81 601.55,-329.81 105.55,-329.81"/>
<text text-anchor="start" x="116.55" y="-350.01" font-family="Helvetica,sans-Serif" font-size="32.00" fill="#29235c">endpoint &#160;&#160;&#160;</text>
<text text-anchor="start" x="370.12" y="-351.01" font-family="Helvetica,sans-Serif" font-style="italic" font-size="32.00" fill="#29235c">varchar(768)</text>
<text text-anchor="start" x="551.46" y="-351.01" font-family="Helvetica,sans-Serif" font-size="32.00" fill="#29235c"> </text>
<text text-anchor="start" x="560.35" y="-351.01" font-family="Helvetica,sans-Serif" font-weight="bold" font-size="32.00" fill="#29235c">(!)</text>
<polygon fill="#e7e2dd" stroke="transparent" points="105.55,-269.81 105.55,-329.81 601.55,-329.81 601.55,-269.81 105.55,-269.81"/>
<polygon fill="none" stroke="#29235c" points="105.55,-269.81 105.55,-329.81 601.55,-329.81 601.55,-269.81 105.55,-269.81"/>
<text text-anchor="start" x="116.55" y="-290.01" font-family="Helvetica,sans-Serif" font-size="32.00" fill="#29235c">auth_key &#160;&#160;&#160;</text>
<text text-anchor="start" x="499.89" y="-291.01" font-family="Helvetica,sans-Serif" font-style="italic" font-size="32.00" fill="#29235c">text</text>
<text text-anchor="start" x="551.46" y="-291.01" font-family="Helvetica,sans-Serif" font-size="32.00" fill="#29235c"> </text>
<text text-anchor="start" x="560.35" y="-291.01" font-family="Helvetica,sans-Serif" font-weight="bold" font-size="32.00" fill="#29235c">(!)</text>
<polygon fill="#e7e2dd" stroke="transparent" points="105.55,-209.81 105.55,-269.81 601.55,-269.81 601.55,-209.81 105.55,-209.81"/>
<polygon fill="none" stroke="#29235c" points="105.55,-209.81 105.55,-269.81 601.55,-269.81 601.55,-209.81 105.55,-209.81"/>
<text text-anchor="start" x="116.55" y="-230.01" font-family="Helvetica,sans-Serif" font-size="32.00" fill="#29235c">p256dh_key &#160;&#160;&#160;</text>
<text text-anchor="start" x="499.89" y="-231.01" font-family="Helvetica,sans-Serif" font-style="italic" font-size="32.00" fill="#29235c">text</text>
<text text-anchor="start" x="551.46" y="-231.01" font-family="Helvetica,sans-Serif" font-size="32.00" fill="#29235c"> </text>
<text text-anchor="start" x="560.35" y="-231.01" font-family="Helvetica,sans-Serif" font-weight="bold" font-size="32.00" fill="#29235c">(!)</text>
<polygon fill="#e7e2dd" stroke="transparent" points="105.55,-149.81 105.55,-209.81 601.55,-209.81 601.55,-149.81 105.55,-149.81"/>
<polygon fill="none" stroke="#29235c" points="105.55,-149.81 105.55,-209.81 601.55,-209.81 601.55,-149.81 105.55,-149.81"/>
<text text-anchor="start" x="116.55" y="-170.01" font-family="Helvetica,sans-Serif" font-size="32.00" fill="#29235c">expired_at &#160;&#160;&#160;</text>
<text text-anchor="start" x="442.99" y="-171.01" font-family="Helvetica,sans-Serif" font-style="italic" font-size="32.00" fill="#29235c">timestamp</text>
<polygon fill="#e7e2dd" stroke="transparent" points="105.55,-89.81 105.55,-149.81 601.55,-149.81 601.55,-89.81 105.55,-89.81"/>
<polygon fill="none" stroke="#29235c" points="105.55,-89.81 105.55,-149.81 601.55,-149.81 601.55,-89.81 105.55,-89.81"/>
<text text-anchor="start" x="116.55" y="-110.01" font-family="Helvetica,sans-Serif" font-size="32.00" fill="#29235c">created_at &#160;&#160;&#160;</text>
<text text-anchor="start" x="403.9" y="-111.01" font-family="Helvetica,sans-Serif" font-style="italic" font-size="32.00" fill="#29235c">timestamp</text>
<text text-anchor="start" x="551.46" y="-111.01" font-family="Helvetica,sans-Serif" font-size="32.00" fill="#29235c"> </text>
<text text-anchor="start" x="560.35" y="-111.01" font-family="Helvetica,sans-Serif" font-weight="bold" font-size="32.00" fill="#29235c">(!)</text>
<polygon fill="none" stroke="#29235c" stroke-width="2" points="104.55,-88.81 104.55,-510.81 602.55,-510.81 602.55,-88.81 104.55,-88.81"/>
</g>
</g>
</svg>
